<svg width="20" height="20" viewBox="0 0 20 20" fill="none" xmlns="http://www.w3.org/2000/svg">
<path d="M10.0004 10.9119C10.5025 10.9119 10.9095 10.5049 10.9095 10.0028C10.9095 9.50076 10.5025 9.09375 10.0004 9.09375C9.49832 9.09375 9.09131 9.50076 9.09131 10.0028C9.09131 10.5049 9.49832 10.9119 10.0004 10.9119Z" fill="#4FAAEF"/>
<path d="M14.5458 10.9119C15.0479 10.9119 15.4549 10.5049 15.4549 10.0028C15.4549 9.50076 15.0479 9.09375 14.5458 9.09375C14.0437 9.09375 13.6367 9.50076 13.6367 10.0028C13.6367 10.5049 14.0437 10.9119 14.5458 10.9119Z" fill="#4FAAEF"/>
<path d="M5.4545 10.9119C5.95658 10.9119 6.36359 10.5049 6.36359 10.0028C6.36359 9.50076 5.95658 9.09375 5.4545 9.09375C4.95242 9.09375 4.54541 9.50076 4.54541 10.0028C4.54541 10.5049 4.95242 10.9119 5.4545 10.9119Z" fill="#4FAAEF"/>
<path d="M10 5.12545e-06C8.23492 -0.00178262 6.50087 0.464129 4.97436 1.35032C3.44784 2.2365 2.18338 3.51132 1.30968 5.04501C0.435979 6.5787 -0.0157685 8.3165 0.000420293 10.0815C0.0166091 11.8465 0.500157 13.5758 1.40184 15.0932L0.916208 18.9782C0.90033 19.106 0.911802 19.2358 0.949863 19.359C0.987924 19.4821 1.05171 19.5957 1.13699 19.6923C1.22227 19.7889 1.3271 19.8663 1.44454 19.9193C1.56198 19.9724 1.68934 19.9999 1.81821 20C1.8926 20.0002 1.96673 19.991 2.03884 19.9727L5.74838 19.0454C7.0768 19.6764 8.52939 20.0025 10 20C12.6522 20 15.1957 18.9464 17.0711 17.0711C18.9464 15.1957 20 12.6522 20 10C20 7.34783 18.9464 4.8043 17.0711 2.92893C15.1957 1.05357 12.6522 5.12545e-06 10 5.12545e-06ZM10 18.1818C8.70087 18.1834 7.42048 17.8719 6.26729 17.2736C6.13857 17.2077 5.996 17.1734 5.85138 17.1736C5.77699 17.1735 5.70286 17.1826 5.63075 17.2009L2.8853 17.8872L3.24548 15.0009C3.27203 14.7902 3.22377 14.5768 3.10911 14.3981C2.13386 12.867 1.69588 11.0548 1.86424 9.24728C2.03259 7.43976 2.79769 5.73967 4.03894 4.41499C5.28019 3.09031 6.927 2.21638 8.71976 1.93097C10.5125 1.64555 12.3493 1.96488 13.9406 2.83862C15.5318 3.71235 16.787 5.09081 17.5083 6.75669C18.2297 8.42257 18.3761 10.2811 17.9245 12.0394C17.4729 13.7977 16.4491 15.3557 15.0143 16.4678C13.5795 17.58 11.8154 18.183 10 18.1818Z" fill="#4FAAEF"/>
</svg>
