<svg width="19" height="18" viewBox="0 0 19 18" fill="none" xmlns="http://www.w3.org/2000/svg">
<path d="M1.25 16.875H0.25C0.25 17.4273 0.697715 17.875 1.25 17.875L1.25 16.875ZM17.875 17.875C18.4273 17.875 18.875 17.4273 18.875 16.875C18.875 16.3227 18.4273 15.875 17.875 15.875V17.875ZM1.25 12.8329L0.552802 12.116C0.359214 12.3043 0.25 12.5628 0.25 12.8329H1.25ZM12.5432 1.84971L11.846 1.13283L11.846 1.13283L12.5432 1.84971ZM14.8943 1.84971L14.1971 2.56659L14.1971 2.56659L14.8943 1.84971ZM16.6994 3.60527L17.3966 2.88839L17.3966 2.88839L16.6994 3.60527ZM16.6994 5.89185L16.0022 5.17497L16.0022 5.17497L16.6994 5.89185ZM5.40625 16.875L5.40626 17.875C5.66665 17.875 5.91678 17.7734 6.10345 17.5919L5.40625 16.875ZM17.3938 4.43633L18.3422 4.11946L18.3422 4.11946L17.3938 4.43633ZM17.3938 5.0608L16.4453 4.74392L16.4453 4.74392L17.3938 5.0608ZM13.3977 1.17446L13.0964 0.220934L13.0964 0.220934L13.3977 1.17446ZM14.0399 1.17446L14.3412 0.220934L14.0399 1.17446ZM10.2597 4.0317C9.86378 3.64665 9.23067 3.65547 8.84562 4.05139C8.46057 4.44731 8.46938 5.08041 8.8653 5.46546L10.2597 4.0317ZM13.0216 9.5076C13.4175 9.89265 14.0506 9.88384 14.4356 9.48792C14.8207 9.092 14.8119 8.45889 14.4159 8.07384L13.0216 9.5076ZM1.25 17.875H17.875V15.875H1.25V17.875ZM2.25 16.875V12.8329H0.25V16.875H2.25ZM1.9472 13.5497L13.2404 2.56659L11.846 1.13283L0.552802 12.116L1.9472 13.5497ZM14.1971 2.56659L16.0022 4.32215L17.3966 2.88839L15.5915 1.13283L14.1971 2.56659ZM16.0022 5.17497L4.70905 16.1581L6.10345 17.5919L17.3966 6.60873L16.0022 5.17497ZM5.40624 15.875L1.24999 15.875L1.25001 17.875L5.40626 17.875L5.40624 15.875ZM16.0022 4.32215C16.2199 4.53381 16.3393 4.65106 16.4186 4.74196C16.4908 4.8246 16.4664 4.81632 16.4453 4.75321L18.3422 4.11946C18.2441 3.82562 18.0782 3.60189 17.9253 3.42673C17.7797 3.25983 17.5905 3.07692 17.3966 2.88839L16.0022 4.32215ZM17.3966 6.60873C17.5905 6.4202 17.7797 6.23728 17.9254 6.07038C18.0783 5.89521 18.2441 5.6715 18.3422 5.37767L16.4453 4.74392C16.4664 4.68083 16.4908 4.67255 16.4186 4.75518C16.3393 4.84607 16.2199 4.96331 16.0022 5.17497L17.3966 6.60873ZM16.4453 4.75321C16.445 4.75221 16.4446 4.75056 16.4446 4.74857C16.4446 4.74657 16.445 4.74493 16.4453 4.74392L18.3422 5.37767C18.4788 4.96905 18.4788 4.52808 18.3422 4.11946L16.4453 4.75321ZM13.2404 2.56659C13.4579 2.35508 13.5786 2.23874 13.6724 2.16128C13.7567 2.09169 13.753 2.11093 13.699 2.12798L13.0964 0.220934C12.8052 0.312955 12.5799 0.469729 12.3991 0.618978C12.2279 0.760353 12.04 0.944156 11.846 1.13283L13.2404 2.56659ZM15.5915 1.13283C15.3975 0.944212 15.2097 0.7604 15.0385 0.619047C14.8578 0.469799 14.6325 0.312976 14.3412 0.220934L13.7386 2.12798C13.6846 2.11091 13.6808 2.09162 13.765 2.16121C13.8589 2.2387 13.9796 2.35503 14.1971 2.56659L15.5915 1.13283ZM13.699 2.12798C13.7116 2.12401 13.726 2.12401 13.7386 2.12798L14.3412 0.220934C13.9364 0.0930221 13.5012 0.0930221 13.0964 0.220934L13.699 2.12798ZM8.8653 5.46546L13.0216 9.5076L14.4159 8.07384L10.2597 4.0317L8.8653 5.46546Z" fill="#2F668F"/>
</svg>
