<svg width="23" height="24" viewBox="0 0 23 24" fill="none" xmlns="http://www.w3.org/2000/svg">
<path d="M2.43298 22.7335L2.86166 21.8301H2.86166L2.43298 22.7335ZM1.28611 21.6654L0.408842 22.1454H0.408842L1.28611 21.6654ZM21.7142 21.6654L22.5914 22.1454L21.7142 21.6654ZM20.5665 22.7335L20.1378 21.8301L20.5665 22.7335ZM20.5665 3.71087L20.9951 2.80741L20.5665 3.71087ZM21.7142 4.77916L20.8369 5.25917L21.7142 4.77916ZM2.43298 3.71087L2.86166 4.61433L2.43298 3.71087ZM1.28611 4.77916L2.16337 5.25917L1.28611 4.77916ZM16.75 18.1111V17.1111C16.1977 17.1111 15.75 17.5588 15.75 18.1111H16.75ZM16.7526 18.1111L17.7523 18.1361C17.7591 17.8666 17.6567 17.6059 17.4685 17.4129C17.2803 17.2199 17.0222 17.1111 16.7526 17.1111V18.1111ZM16.7526 18.1136L16.7305 19.1133C17.2815 19.1255 17.7385 18.6895 17.7523 18.1386L16.7526 18.1136ZM16.75 18.1135H15.75C15.75 18.6572 16.1844 19.1012 16.7279 19.1133L16.75 18.1135ZM11.5 18.1111V17.1111C10.9477 17.1111 10.5 17.5588 10.5 18.1111H11.5ZM11.5026 18.1111L12.5023 18.1361C12.5091 17.8666 12.4067 17.6059 12.2185 17.4129C12.0303 17.2199 11.7722 17.1111 11.5026 17.1111V18.1111ZM11.5026 18.1136L11.4805 19.1133C12.0315 19.1255 12.4885 18.6895 12.5023 18.1386L11.5026 18.1136ZM11.5 18.1135H10.5C10.5 18.6572 10.9344 19.1012 11.4779 19.1133L11.5 18.1135ZM6.25 18.1111V17.1111C5.69771 17.1111 5.25 17.5588 5.25 18.1111H6.25ZM6.25262 18.1111L7.25231 18.1361C7.25905 17.8666 7.15672 17.6059 6.96852 17.4129C6.78031 17.2199 6.52218 17.1111 6.25262 17.1111V18.1111ZM6.25256 18.1136L6.23047 19.1133C6.78148 19.1255 7.23847 18.6895 7.25225 18.1386L6.25256 18.1136ZM6.25 18.1135H5.25C5.25 18.6572 5.68436 19.1012 6.22791 19.1133L6.25 18.1135ZM16.7526 13.2222H17.7526C17.7526 12.6699 17.3048 12.2222 16.7526 12.2222V13.2222ZM16.7526 13.2247L16.7305 14.2244C16.9995 14.2304 17.2595 14.1277 17.4518 13.9395C17.6441 13.7514 17.7526 13.4937 17.7526 13.2247H16.7526ZM16.75 13.2246H15.75C15.75 13.7683 16.1844 14.2124 16.7279 14.2244L16.75 13.2246ZM16.75 13.2222V12.2222C16.1977 12.2222 15.75 12.6699 15.75 13.2222H16.75ZM11.5 13.2222V12.2222C10.9477 12.2222 10.5 12.6699 10.5 13.2222H11.5ZM11.5026 13.2222L12.5023 13.2472C12.5091 12.9778 12.4067 12.717 12.2185 12.524C12.0303 12.331 11.7722 12.2222 11.5026 12.2222V13.2222ZM11.5026 13.2247L11.4805 14.2244C12.0315 14.2366 12.4885 13.8006 12.5023 13.2497L11.5026 13.2247ZM11.5 13.2246H10.5C10.5 13.7683 10.9344 14.2124 11.4779 14.2244L11.5 13.2246ZM6.25 13.2222V12.2222C5.69771 12.2222 5.25 12.6699 5.25 13.2222H6.25ZM6.25262 13.2222L7.25231 13.2472C7.25905 12.9778 7.15672 12.717 6.96852 12.524C6.78031 12.331 6.52218 12.2222 6.25262 12.2222V13.2222ZM6.25256 13.2247L6.23047 14.2244C6.78148 14.2366 7.23847 13.8006 7.25225 13.2497L6.25256 13.2247ZM6.25 13.2246H5.25C5.25 13.7683 5.68436 14.2124 6.22791 14.2244L6.25 13.2246ZM1 7.33333C0.447715 7.33333 0 7.78105 0 8.33333C0 8.88562 0.447715 9.33333 1 9.33333V7.33333ZM22 9.33333C22.5523 9.33333 23 8.88562 23 8.33333C23 7.78105 22.5523 7.33333 22 7.33333V9.33333ZM17.75 1C17.75 0.447715 17.3023 0 16.75 0C16.1977 0 15.75 0.447715 15.75 1H17.75ZM15.75 3.44444C15.75 3.99673 16.1977 4.44444 16.75 4.44444C17.3023 4.44444 17.75 3.99673 17.75 3.44444H15.75ZM7.25 1C7.25 0.447715 6.80228 0 6.25 0C5.69771 0 5.25 0.447715 5.25 1H7.25ZM5.25 3.44444C5.25 3.99673 5.69771 4.44444 6.25 4.44444C6.80228 4.44444 7.25 3.99673 7.25 3.44444H5.25ZM5.20026 4.44444H17.8003V2.44444H5.20026V4.44444ZM21 7.3555V19.0888H23V7.3555H21ZM17.8003 22H5.20026V24H17.8003V22ZM2 19.0888V7.3555H0V19.0888H2ZM5.20026 22C4.44983 22 3.94287 21.9993 3.55175 21.9696C3.17031 21.9405 2.98439 21.8883 2.86166 21.8301L2.00431 23.637C2.4431 23.8452 2.90574 23.9262 3.40003 23.9638C3.88463 24.0007 4.48054 24 5.20026 24V22ZM0 19.0888C0 19.7556 -0.000895739 20.3203 0.0395898 20.7818C0.081298 21.2572 0.172473 21.7134 0.408842 22.1454L2.16337 21.1854C2.11363 21.0945 2.06176 20.9469 2.03194 20.607C2.0009 20.2532 2 19.791 2 19.0888H0ZM2.86166 21.8301C2.54963 21.682 2.30944 21.4523 2.16337 21.1854L0.408842 22.1454C0.766116 22.7983 1.32849 23.3163 2.00431 23.637L2.86166 21.8301ZM21 19.0888C21 19.7912 20.9992 20.2533 20.9682 20.6072C20.9384 20.9471 20.8866 21.0946 20.8369 21.1854L22.5914 22.1454C22.8279 21.7133 22.9189 21.257 22.9606 20.7816C23.001 20.3202 23 19.7555 23 19.0888H21ZM17.8003 24C18.52 24 19.1156 24.0007 19.6 23.9638C20.0942 23.9262 20.5565 23.8451 20.9951 23.637L20.1378 21.8301C20.015 21.8884 19.8292 21.9406 19.4482 21.9696C19.0574 21.9993 18.5507 22 17.8003 22V24ZM20.8369 21.1854C20.6912 21.4517 20.4505 21.6817 20.1378 21.8301L20.9951 23.637C21.6703 23.3167 22.2338 22.799 22.5914 22.1454L20.8369 21.1854ZM17.8003 4.44444C18.5507 4.44444 19.0574 4.44512 19.4482 4.47486C19.8292 4.50386 20.015 4.55606 20.1378 4.61433L20.9951 2.80741C20.5564 2.59926 20.0941 2.51824 19.6 2.48063C19.1156 2.44377 18.5199 2.44444 17.8003 2.44444V4.44444ZM23 7.3555C23 6.6888 23.001 6.12415 22.9606 5.6628C22.9189 5.18746 22.8279 4.73124 22.5914 4.29916L20.8369 5.25917C20.8866 5.34998 20.9384 5.49741 20.9682 5.83727C20.9992 6.1911 21 6.65317 21 7.3555H23ZM20.1378 4.61433C20.4504 4.76266 20.6911 4.99276 20.8369 5.25917L22.5914 4.29916C22.2339 3.64566 21.6704 3.1278 20.9951 2.80741L20.1378 4.61433ZM5.20026 2.44444C4.48055 2.44444 3.88464 2.44377 3.40005 2.48063C2.90577 2.51822 2.44311 2.59921 2.00431 2.80741L2.86166 4.61433C2.98437 4.55611 3.17028 4.50388 3.55173 4.47487C3.94286 4.44512 4.44982 4.44444 5.20026 4.44444V2.44444ZM2 7.3555C2 6.65328 2.0009 6.1912 2.03194 5.83744C2.06175 5.49764 2.11362 5.3501 2.16337 5.25917L0.408842 4.29916C0.172487 4.73112 0.0813028 5.18724 0.0395908 5.66263C-0.000895977 6.12405 0 6.68869 0 7.3555H2ZM2.00431 2.80741C1.32838 3.12813 0.766059 3.6463 0.408842 4.29916L2.16337 5.25917C2.30949 4.99212 2.54974 4.76233 2.86166 4.61433L2.00431 2.80741ZM16.75 19.1111H16.7526V17.1111H16.75V19.1111ZM15.7529 18.0861L15.7529 18.0886L17.7523 18.1386L17.7523 18.1361L15.7529 18.0861ZM16.7747 17.1138L16.7721 17.1137L16.7279 19.1133L16.7305 19.1133L16.7747 17.1138ZM17.75 18.1135V18.1111H15.75V18.1135H17.75ZM11.5 19.1111H11.5026V17.1111H11.5V19.1111ZM10.5029 18.0861L10.5029 18.0886L12.5023 18.1386L12.5023 18.1361L10.5029 18.0861ZM11.5247 17.1138L11.5221 17.1137L11.4779 19.1133L11.4805 19.1133L11.5247 17.1138ZM12.5 18.1135V18.1111H10.5V18.1135H12.5ZM6.25 19.1111H6.25262V17.1111H6.25V19.1111ZM5.25294 18.0861L5.25288 18.0886L7.25225 18.1386L7.25231 18.1361L5.25294 18.0861ZM6.27466 17.1138L6.27209 17.1137L6.22791 19.1133L6.23047 19.1133L6.27466 17.1138ZM7.25 18.1135V18.1111H5.25V18.1135H7.25ZM15.7526 13.2222V13.2247H17.7526V13.2222H15.7526ZM16.7747 12.2249L16.7721 12.2249L16.7279 14.2244L16.7305 14.2244L16.7747 12.2249ZM17.75 13.2246V13.2222H15.75V13.2246H17.75ZM16.75 14.2222H16.7526V12.2222H16.75V14.2222ZM11.5 14.2222H11.5026V12.2222H11.5V14.2222ZM10.5029 13.1972L10.5029 13.1997L12.5023 13.2497L12.5023 13.2472L10.5029 13.1972ZM11.5247 12.2249L11.5221 12.2249L11.4779 14.2244L11.4805 14.2244L11.5247 12.2249ZM12.5 13.2246V13.2222H10.5V13.2246H12.5ZM6.25 14.2222H6.25262V12.2222H6.25V14.2222ZM5.25294 13.1972L5.25288 13.1997L7.25225 13.2497L7.25231 13.2472L5.25294 13.1972ZM6.27466 12.2249L6.27209 12.2249L6.22791 14.2244L6.23047 14.2244L6.27466 12.2249ZM7.25 13.2246V13.2222H5.25V13.2246H7.25ZM1 9.33333H22V7.33333H1V9.33333ZM15.75 1V3.44444H17.75V1H15.75ZM5.25 1V3.44444H7.25V1H5.25Z" fill="#2D2D2D"/>
</svg>
