<svg width="26" height="26" viewBox="0 0 26 26" fill="none" xmlns="http://www.w3.org/2000/svg">
<path d="M19.9555 22.7764C18.2466 20.8677 15.7635 19.6667 13 19.6667C10.2365 19.6667 7.75323 20.8677 6.04427 22.7764M13 25C6.37258 25 1 19.6274 1 13C1 6.37258 6.37258 1 13 1C19.6274 1 25 6.37258 25 13C25 19.6274 19.6274 25 13 25ZM13 15.6667C10.7909 15.6667 9 13.8758 9 11.6667C9 9.45753 10.7909 7.66667 13 7.66667C15.2091 7.66667 17 9.45753 17 11.6667C17 13.8758 15.2091 15.6667 13 15.6667Z" stroke="#2D2D2D" stroke-width="2" stroke-linecap="round" stroke-linejoin="round"/>
</svg>
